# xmcd
#
# Track frame offsets: 
#        150
#        3128
#        18292
#        39610
#        56338
#        72055
#        76390
#        99748
#        120695
#        146590
#        165348
#        185862
#        207220
#        222952
#        238965
#
# Disc length: 3233 seconds
#
# Revision: 2
# Processed by: cddbd v1.5.2PL0 Copyright (c) Steve Scherf et al.
# Submitted via: ExactAudioCopy v1.0b3
#
DISCID=cb0c9f0f
DTITLE=MAX - Jewel Of Jewels
DYEAR=2006
DGENRE=J-Pop
TTITLE0=The Biginning Of Jewel Of Jewels
TTITLE1=It's Time To "Shine"
TTITLE2=What's Going On
TTITLE3=Love Screw
TTITLE4=Festa
TTITLE5=Aqua
TTITLE6=Mirage
TTITLE7=ニライカナイ (Kariyushi Remix)
TTITLE8=きらきらり
TTITLE9=Be With You
TTITLE10=Eternal White
TTITLE11=あなたを想うほど
TTITLE12=Naughty Boy
TTITLE13=Melty Love
TTITLE14=The Closing Of Jewel Of Jewels
EXTD=
EXTT0=
EXTT1=
EXTT2=
EXTT3=
EXTT4=
EXTT5=
EXTT6=
EXTT7=
EXTT8=
EXTT9=
EXTT10=
EXTT11=
EXTT12=
EXTT13=
EXTT14=
PLAYORDER=
